<svg xmlns="http://www.w3.org/2000/svg" xmlns:svg="http://www.w3.org/2000/svg" id="svg2" width="100" height="100" version="1.1" viewBox="0 0 100 100"><metadata id="metadata7"/><g id="layer1" transform="translate(0,-952.3621605)"><rect style="opacity:1;fill:none;fill-opacity:1;stroke:#000;stroke-width:4;stroke-linecap:round;stroke-linejoin:round;stroke-miterlimit:4;stroke-dasharray:none;stroke-opacity:1" id="rect4136" width="74.354" height="54.017" x="12.823" y="985.522"/><path id="path15" d="m 38.11104131,1013.355794 c 8.76589894,-7.169064 17.34081968,-14.5866546 26.29769681,-21.5454257 -4.69806348,7.2264162 -9.5298117,14.3572447 -14.22787518,21.5836607 -4.02963981,0.01912 -8.05927963,0.01912 -12.06982163,-0.03823 l 0,0 z" style="fill:#010101;fill-rule:evenodd;stroke:none;stroke-width:1"/><path id="path17" d="m 50.17724511,1013.384834 c 4.04873763,0 8.07837745,0 12.10801726,0.05735 -8.82319239,7.130829 -17.3599175,14.605773 -26.33589244,21.545427 4.69806348,-7.226416 9.52981169,-14.376363 14.22787518,-21.602779 l 0,0 z" style="fill:#010101;fill-rule:evenodd;stroke:none;stroke-width:1"/><path style="fill:none;fill-rule:evenodd;stroke:#000;stroke-width:3;stroke-linecap:butt;stroke-linejoin:miter;stroke-miterlimit:4;stroke-dasharray:none;stroke-opacity:1" id="path4150" d="m 22.33910536,963.5782409 11.78571431,0"/><path style="fill:none;fill-rule:evenodd;stroke:#000;stroke-width:3;stroke-linecap:butt;stroke-linejoin:miter;stroke-miterlimit:4;stroke-dasharray:none;stroke-opacity:1" id="path4150-3" d="m 66.36620691,963.0969955 11.78571431,0"/><path style="fill:none;fill-rule:evenodd;stroke:#000;stroke-width:3;stroke-linecap:butt;stroke-linejoin:miter;stroke-miterlimit:4;stroke-dasharray:none;stroke-opacity:1" id="path4150-6" d="m 72.25906406,956.9362811 0,11.785714"/><rect style="opacity:1;fill:none;fill-opacity:1;stroke:#000;stroke-width:4;stroke-linecap:round;stroke-linejoin:round;stroke-miterlimit:4;stroke-dasharray:none;stroke-opacity:1" id="rect4173-7" width="15.313" height="9.902" x="64.664" y="975.588"/><rect id="rect4190" width="15.313" height="9.902" x="20.735" y="975.412" style="opacity:1;fill:none;fill-opacity:1;stroke:#000;stroke-width:4;stroke-linecap:round;stroke-linejoin:round;stroke-miterlimit:4;stroke-dasharray:none;stroke-opacity:1"/></g></svg>