<svg xmlns="http://www.w3.org/2000/svg" xmlns:svg="http://www.w3.org/2000/svg" id="Layer_1" x="0" y="0" version="1.1" viewBox="-1076.1 758.6 202.1 43.6" xml:space="preserve" style="enable-background:new -1076.1 758.6 202.1 43.6"><metadata id="metadata40"/><style id="style3" type="text/css">.st0{fill:#f4b960}.st1{fill:#e66f32}.st2{fill:#e43c41}.st3{fill:#bdd041}.st4{fill:#6db54c}.st5{fill:#aedae6}.st6{fill:#56b8de}.st7{fill:#00b1d5}.st8{fill:url(#XMLID_2_)}.st9{fill:#221f1f}.st10{fill:#fff}</style><g id="g5" transform="matrix(0.4998374642,0,0,0.4998374642,-538.2249049,380.2803314)"><g id="XMLID_57_"><circle id="XMLID_68_" cx="-1054.3" cy="780.4" r="21.7" class="st0" style="fill:#f4b960"/><circle id="XMLID_67_" cx="-1056.5" cy="778.2" r="19.6" class="st1" style="fill:#e66f32"/><circle id="XMLID_66_" cx="-1053.8" cy="775.7" r="17" class="st2" style="fill:#e43c41"/><circle id="XMLID_65_" cx="-1052.5" cy="777" r="15.6" class="st3" style="fill:#bdd041"/><circle id="XMLID_64_" cx="-1053.6" cy="778.2" r="14.5" class="st4" style="fill:#6db54c"/><circle id="XMLID_63_" cx="-1055.9" cy="775.8" r="12.1" class="st5" style="fill:#aedae6"/><circle id="XMLID_62_" cx="-1054" cy="773.8" r="10.2" class="st6" style="fill:#56b8de"/><circle id="XMLID_61_" cx="-1052.7" cy="775.2" r="8.9" class="st7" style="fill:#00b1d5"/><radialGradient id="XMLID_2_" cx="-1053.988" cy="-164.5" r="7.661" gradientTransform="matrix(1,0,0,-1,0,611.9999)" gradientUnits="userSpaceOnUse"><stop style="stop-color:#797979" id="stop17" offset="0"/><stop style="stop-color:#4c4c4c" id="stop19" offset="1"/></radialGradient><circle id="XMLID_60_" cx="-1054" cy="776.4" r="7.6" class="st8" style="fill:url(#XMLID_2_)"/><circle id="XMLID_59_" cx="-1054" cy="776.4" r="7.6" class="st9" style="fill:#221f1f"/><ellipse id="XMLID_58_" cx="-1050.9" cy="773.6" class="st10" rx="2.4" ry="1.5" transform="matrix(0.4094,-0.9124,0.9124,0.4094,-1326.5503,-501.9048)" style="fill:#fff"/></g><path id="XMLID_53_" d="m -1025.5,772.2 c 0,-0.1 0.1,-0.3 0.3,-0.3 l 6.9,0 c 3.9,0 5.7,1.8 5.7,4.5 0,2 -1,3 -2.2,3.6 l 0,0.1 c 1.1,0.4 2.5,1.8 2.5,3.9 0,3.4 -2.3,5 -6.3,5 l -6.6,0 c -0.1,0 -0.3,-0.1 -0.3,-0.3 0,0 0,-16.5 0,-16.5 z m 7.1,6.8 c 1.6,0 2.6,-0.9 2.6,-2.2 0,-1.4 -1,-2.3 -2.6,-2.3 l -3.7,0 c -0.1,0 -0.1,0.1 -0.1,0.1 l 0,4.2 c 0,0.1 0.1,0.1 0.1,0.1 -0.1,0.1 3.7,0.1 3.7,0.1 z m -3.8,7.2 3.9,0 c 1.8,0 2.8,-0.9 2.8,-2.4 0,-1.5 -1,-2.4 -2.8,-2.4 l -3.9,0 c -0.1,0 -0.1,0.1 -0.1,0.1 l 0,4.4 c -0.1,0.3 0.1,0.3 0.1,0.3 z" class="st10" style="fill:#000;fill-opacity:1"/><path id="XMLID_51_" d="m -1010.1,788.8 c -0.1,0 -0.3,-0.1 -0.3,-0.3 l 0,-11.6 c 0,-0.1 0.1,-0.3 0.3,-0.3 l 2.5,0 c 0.1,0 0.3,0.1 0.3,0.3 l 0,1 0.1,0 c 0.6,-0.9 1.8,-1.6 3.4,-1.6 1,0 2.1,0.4 2.7,1 0.1,0.1 0.1,0.3 0.1,0.3 l -1.4,1.7 c -0.1,0.1 -0.3,0.1 -0.4,0.1 -0.6,-0.3 -1.2,-0.6 -2,-0.6 -1.7,0 -2.5,1.1 -2.5,3.1 l 0,6.5 c 0,0.1 -0.1,0.3 -0.3,0.3 l -2.5,0.1 0,0 z" class="st10" style="fill:#000;fill-opacity:1"/><path id="XMLID_48_" d="m -1000.6,785.8 c -0.3,-0.8 -0.5,-1.6 -0.5,-3 0,-1.4 0.1,-2.2 0.5,-3 0.8,-2.2 2.7,-3.3 5.4,-3.3 2.7,0 4.6,1.2 5.4,3.3 0.3,0.8 0.5,1.6 0.5,3 0,1.4 -0.1,2.2 -0.5,3 -0.8,2.2 -2.7,3.3 -5.4,3.3 -2.7,0 -4.7,-1.1 -5.4,-3.3 z m 7.9,-0.7 c 0.3,-0.6 0.3,-1.2 0.3,-2.2 0,-1 -0.1,-1.6 -0.3,-2.2 -0.4,-1 -1.2,-1.6 -2.5,-1.6 -1.2,0 -2.1,0.6 -2.5,1.6 -0.3,0.7 -0.3,1.2 -0.3,2.2 0,1 0.1,1.6 0.3,2.2 0.4,1 1.2,1.6 2.5,1.6 1.2,0 2,-0.6 2.5,-1.6 z" class="st10" style="fill:#000;fill-opacity:1"/><path id="XMLID_46_" d="m -976.3,788.8 c -0.1,0 -0.3,-0.1 -0.3,-0.3 l -2.5,-7.8 -0.1,0 -2.5,7.7 c -0.1,0.1 -0.1,0.3 -0.3,0.3 l -2.2,0 c -0.1,0 -0.3,-0.1 -0.3,-0.3 l -4.1,-11.6 c -0.1,-0.1 0.1,-0.3 0.2,-0.3 l 2.6,0 c 0.2,0 0.3,0.1 0.3,0.3 l 2.5,8 0.1,0 2.5,-8 c 0.1,-0.1 0.2,-0.3 0.3,-0.3 l 2,0 c 0.1,0 0.3,0.1 0.3,0.3 l 2.6,8 0.1,0 2.4,-8 c 0.1,-0.2 0.1,-0.3 0.3,-0.3 l 2.6,0 c 0.1,0 0.3,0.1 0.2,0.3 l -4,11.6 c -0.1,0.1 -0.1,0.3 -0.3,0.3 l -2.4,0.1 0,0 z" class="st10" style="fill:#000;fill-opacity:1"/><path id="XMLID_44_" d="m -969.1,787.2 c -0.1,-0.1 -0.1,-0.3 0,-0.3 l 1.6,-1.5 c 0.1,-0.1 0.3,-0.1 0.4,0 0.9,0.8 2.5,1.4 3.9,1.4 1.6,0 2.4,-0.6 2.4,-1.4 0,-0.7 -0.5,-1.2 -2.2,-1.3 l -1.4,-0.1 c -2.6,-0.3 -4,-1.5 -4,-3.5 0,-2.3 1.8,-3.9 5,-3.9 2,0 3.7,0.6 4.9,1.4 0.1,0.1 0.1,0.3 0.1,0.3 l -1.3,1.4 c -0.1,0.1 -0.3,0.1 -0.4,0.1 -0.8,-0.5 -2.2,-1 -3.4,-1 -1.3,0 -2,0.5 -2,1.3 0,0.7 0.5,1.1 2.2,1.3 l 1.4,0.1 c 2.7,0.3 4,1.6 4,3.5 0,2.4 -1.9,4.1 -5.5,4.1 -2.7,0.1 -4.6,-0.9 -5.7,-1.9 z" class="st10" style="fill:#000;fill-opacity:1"/><path id="XMLID_41_" d="m -955.9,785.8 c -0.3,-0.8 -0.5,-1.7 -0.5,-3 0,-1.3 0.1,-2.2 0.5,-3 0.8,-2.2 2.7,-3.3 5.4,-3.3 2.7,0 4.6,1.3 5.4,3.3 0.3,0.8 0.5,1.7 0.5,3.7 0,0.1 -0.1,0.3 -0.3,0.3 l -8.2,0 c -0.1,0 -0.1,0.1 -0.1,0.1 0,0.3 0.1,0.7 0.2,0.9 0.5,1.2 1.4,1.8 2.9,1.8 1.5,0 2.4,-0.5 3.1,-1.1 0.1,-0.1 0.3,-0.1 0.5,-0.1 l 1.6,1.3 c 0.1,0.1 0.1,0.3 0.1,0.3 -1.1,1.2 -3,2.1 -5.4,2.1 -3,0.1 -5,-1.1 -5.7,-3.3 z m 7.9,-5.4 c -0.3,-1 -1.3,-1.6 -2.5,-1.6 -1.2,0 -2.2,0.6 -2.6,1.6 -0.1,0.3 -0.1,0.6 -0.1,1 0,0.1 0.1,0.1 0.1,0.1 l 5.2,0 c 0.1,0 0.1,-0.1 0.1,-0.1 -0.1,-0.3 -0.1,-0.7 -0.2,-1 z" class="st10" style="fill:#000;fill-opacity:1"/><path id="XMLID_39_" d="m -942.6,788.8 c -0.1,0 -0.3,-0.1 -0.3,-0.3 l 0,-11.6 c 0,-0.1 0.1,-0.3 0.3,-0.3 l 2.5,0 c 0.1,0 0.3,0.1 0.3,0.3 l 0,1 0.1,0 c 0.6,-0.9 1.8,-1.6 3.4,-1.6 1,0 2.1,0.4 2.7,1 0.1,0.1 0.1,0.3 0.1,0.3 l -1.4,1.7 c -0.1,0.1 -0.3,0.1 -0.4,0.1 -0.6,-0.3 -1.2,-0.6 -2,-0.6 -1.7,0 -2.5,1.1 -2.5,3.1 l 0,6.5 c 0,0.1 -0.1,0.3 -0.3,0.3 l -2.5,0.1 0,0 z" class="st10" style="fill:#000;fill-opacity:1"/><path id="XMLID_37_" d="m -933.1,787 c -0.1,-0.1 -0.1,-0.3 -0.1,-0.4 l 1.7,-1.8 c 0.1,-0.1 0.3,-0.1 0.4,-0.1 1.2,0.9 3,1.8 5,1.8 2.2,0 3.5,-1 3.5,-2.5 0,-1.2 -0.8,-2 -3.3,-2.4 l -1,-0.1 c -3.5,-0.5 -5.5,-2 -5.5,-4.8 0,-3.1 2.5,-5.2 6.2,-5.2 2.3,0 4.5,0.7 5.9,1.7 0.1,0.1 0.1,0.2 0.1,0.3 l -1.3,1.8 c -0.1,0.1 -0.3,0.1 -0.4,0.1 -1.5,-0.9 -2.9,-1.3 -4.4,-1.3 -1.9,0 -2.9,0.9 -2.9,2.3 0,1.2 0.9,2 3.4,2.3 l 1,0.1 c 3.5,0.5 5.5,2 5.5,5 0,3 -2.4,5.3 -6.9,5.3 -2.9,0.1 -5.5,-0.9 -6.9,-2.1 z" class="st10" style="fill:#000;fill-opacity:1"/><path id="XMLID_35_" d="m -913.8,789.1 c -2.6,0 -3.7,-1.2 -3.7,-3.5 l 0,-6.4 c 0,-0.1 -0.1,-0.1 -0.1,-0.1 l -0.8,0 c -0.1,0 -0.3,-0.1 -0.3,-0.3 l 0,-1.7 c 0,-0.1 0.1,-0.3 0.3,-0.3 l 0.8,0 c 0.1,0 0.1,-0.1 0.1,-0.1 l 0,-3.3 c 0,-0.1 0.1,-0.3 0.3,-0.3 l 2.5,0 c 0.1,0 0.3,0.1 0.3,0.3 l 0,3.3 c 0,0.1 0.1,0.1 0.1,0.1 l 1.8,0 c 0.1,0 0.3,0.1 0.3,0.3 l 0,1.7 c 0,0.1 -0.1,0.3 -0.3,0.3 l -1.8,0 c -0.1,0 -0.1,0.1 -0.1,0.1 l 0,6.3 c 0,0.8 0.4,1.1 1.2,1.1 l 0.7,0 c 0.1,0 0.3,0.1 0.3,0.3 l 0,2 c 0,0.1 -0.1,0.3 -0.3,0.3 l -1.3,-0.1 0,0 z" class="st10" style="fill:#000;fill-opacity:1"/><path id="XMLID_32_" d="m -902.3,788.8 c -0.1,0 -0.3,-0.1 -0.3,-0.3 l 0,-0.9 0,0 c -0.6,0.8 -1.8,1.4 -3.7,1.4 -2.4,0 -4.4,-1.1 -4.4,-3.7 0,-2.6 2,-3.9 5.2,-3.9 l 2.6,0 c 0.1,0 0.1,-0.1 0.1,-0.1 l 0,-0.6 c 0,-1.4 -0.7,-2 -2.9,-2 -1.4,0 -2.4,0.4 -3,0.8 -0.1,0.1 -0.3,0.1 -0.4,-0.1 l -1,-1.6 c -0.1,-0.1 -0.1,-0.3 0.1,-0.3 1,-0.7 2.5,-1.2 4.6,-1.2 4,0 5.4,1.3 5.4,4.2 l 0,7.8 c 0,0.1 -0.1,0.3 -0.3,0.3 l -2,0.2 0,0 z m -0.3,-4 0,-0.9 c 0,-0.1 -0.1,-0.1 -0.1,-0.1 l -2.2,0 c -2,0 -2.8,0.5 -2.8,1.6 0,1 0.8,1.5 2.3,1.5 1.7,-0.1 2.8,-0.7 2.8,-2.1 z" class="st10" style="fill:#000;fill-opacity:1"/><path id="XMLID_30_" d="m -897.4,785.8 c -0.3,-0.8 -0.5,-1.7 -0.5,-3 0,-1.3 0.1,-2.2 0.5,-3 0.8,-2.2 2.8,-3.3 5.4,-3.3 2,0 3.5,0.7 4.5,1.9 0.1,0.1 0.1,0.3 -0.1,0.3 l -1.7,1.4 c -0.1,0.1 -0.3,0.1 -0.4,-0.1 -0.7,-0.7 -1.3,-1 -2.4,-1 -1.2,0 -2.1,0.5 -2.5,1.6 -0.3,0.6 -0.3,1.3 -0.3,2.2 0,0.9 0.1,1.6 0.3,2.3 0.4,1 1.3,1.6 2.5,1.6 1.1,0 1.8,-0.4 2.4,-1 0.1,-0.1 0.3,-0.1 0.4,-0.1 l 1.7,1.4 c 0.1,0.1 0.1,0.3 0.1,0.3 -1,1.1 -2.6,1.8 -4.5,1.8 -2.6,0.1 -4.6,-1.1 -5.4,-3.3 z" class="st10" style="fill:#000;fill-opacity:1"/><path id="XMLID_28_" d="m -876.9,788.8 c -0.2,0 -0.3,-0.1 -0.5,-0.3 l -3.3,-5 -1.8,1.9 0,3.1 c 0,0.1 -0.1,0.3 -0.3,0.3 l -2.5,0 c -0.1,0 -0.3,-0.1 -0.3,-0.3 l 0,-16.5 c 0,-0.1 0.1,-0.3 0.3,-0.3 l 2.5,0 c 0.1,0 0.3,0.1 0.3,0.3 l 0,9.8 4.5,-4.8 c 0.1,-0.2 0.3,-0.3 0.5,-0.3 l 2.8,0 c 0.1,0 0.3,0.1 0.1,0.3 l -4.2,4.4 4.7,7.2 c 0.1,0.1 0.1,0.3 -0.1,0.3 l -2.7,-0.1 0,0 z" class="st10" style="fill:#000;fill-opacity:1"/></g></svg>