<svg xmlns="http://www.w3.org/2000/svg" xmlns:svg="http://www.w3.org/2000/svg" id="svg2" x="0" y="0" fill="#000" version="1.1" viewBox="0 0 100 100"><metadata id="metadata22"/><g id="g4" transform="matrix(0.9090905378,0,0,0.9090900135,4.545473084,-861.2374265)"><path style="color:#000;text-indent:0;text-transform:none;direction:ltr;block-progression:tb;baseline-shift:baseline;display:inline;overflow:visible;visibility:visible;fill:#000;fill-opacity:1;fill-rule:evenodd;stroke:none;marker:none;enable-background:accumulate" id="path6" d="m 7.7812139,958.36224 c -0.9723,0.10699 -1.7871,1.02189 -1.7812,2 l 0,83.99996 c 0,1.0472 0.9528,2 2,2 l 17.8750041,0 66.125,0 c 1.0472,0 2,-0.9528 2,-2 l 0,-83.99996 c 0,-1.0472 -0.9528,-2 -2,-2 -29.3496,-2.8e-4 -59.0909,-1e-5 -84.2188041,0 z m 2.2188001,4 13.875004,0 0,79.99996 -13.875004,0 z m 17.875004,0 4.125,0 0,27.28125 c -0.01,0.76586 0.4654,1.5162 1.1607,1.83758 0.6952,0.32139 1.5738,0.1963 2.1517,-0.30633 l 7.9063,-6.9375 7.9063,6.9375 c 0.5779,0.50263 1.4565,0.62772 2.1517,0.30633 0.6953,-0.32138 1.1692,-1.07172 1.1607,-1.83758 l 0,-27.28125 35.5626,0 0,79.99996 -62.125,0 z m 8.125,0 14.4374,0 0,22.875 -5.9062,-5.1875 c -0.7202,-0.62636 -1.9048,-0.62636 -2.625,0 l -5.9062,5.1875 z" display="inline" overflow="visible" visibility="visible"/><path style="color:#000;text-indent:0;text-transform:none;direction:ltr;block-progression:tb;baseline-shift:baseline;display:inline;overflow:visible;visibility:visible;fill:#000;fill-opacity:1;fill-rule:evenodd;stroke:none;marker:none;enable-background:accumulate" id="path8" d="m 60.618418,988.51849 a 2.000005,2.000005 0 1 0 0,3.99969 l 19.8231,0 a 2.000005,2.000005 0 1 0 0,-3.99969 l -19.8231,0 z" display="inline" overflow="visible" visibility="visible"/><path style="color:#000;text-indent:0;text-transform:none;direction:ltr;block-progression:tb;baseline-shift:baseline;display:inline;overflow:visible;visibility:visible;fill:#000;fill-opacity:1;fill-rule:evenodd;stroke:none;marker:none;enable-background:accumulate" id="path10" d="m 60.618418,978.90224 a 2.000005,2.000005 0 1 0 0,3.99969 l 19.8231,0 a 2.000005,2.000005 0 1 0 0,-3.99969 l -19.8231,0 z" display="inline" overflow="visible" visibility="visible"/><path style="color:#000;text-indent:0;text-transform:none;direction:ltr;block-progression:tb;baseline-shift:baseline;display:inline;overflow:visible;visibility:visible;fill:#000;fill-opacity:1;fill-rule:evenodd;stroke:none;marker:none;enable-background:accumulate" id="path12" d="m 36.618118,998.25474 a 2.000005,2.000005 0 1 0 0,3.99966 l 43.8234,0 a 2.000005,2.000005 0 1 0 0,-3.99966 l -43.8234,0 z" display="inline" overflow="visible" visibility="visible"/><path style="color:#000;text-indent:0;text-transform:none;direction:ltr;block-progression:tb;baseline-shift:baseline;display:inline;overflow:visible;visibility:visible;fill:#000;fill-opacity:1;fill-rule:evenodd;stroke:none;marker:none;enable-background:accumulate" id="path14" d="m 36.618118,1008.1813 a 2.000005,2.000005 0 1 0 0,3.9997 l 43.8234,0 a 2.000005,2.000005 0 1 0 0,-3.9997 l -43.8234,0 z" display="inline" overflow="visible" visibility="visible"/><path style="color:#000;text-indent:0;text-transform:none;direction:ltr;block-progression:tb;baseline-shift:baseline;display:inline;overflow:visible;visibility:visible;fill:#000;fill-opacity:1;fill-rule:evenodd;stroke:none;marker:none;enable-background:accumulate" id="path16" d="m 36.618118,1018.7891 a 2.000005,2.000005 0 1 0 0,3.9994 l 43.8234,0 a 2.000005,2.000005 0 1 0 0,-3.9994 l -43.8234,0 z" display="inline" overflow="visible" visibility="visible"/></g></svg>