<svg xmlns="http://www.w3.org/2000/svg" xmlns:svg="http://www.w3.org/2000/svg" id="svg2" width="100" height="100" version="1.1" viewBox="0 0 100 100"><metadata id="metadata22"/><title id="title4">logo full</title><description>Created with Sketch.</description><g id="Page-1" transform="translate(0,57)" style="fill:none;fill-rule:evenodd;stroke:none;stroke-width:1"><g id="logo" transform="matrix(1.909781903,0,0,1.911750316,8.931054187,-48.10771704)"><path id="path11" d="m 16.33261303,1.746566507 c 5.2845,-1.3552499992 11.12475,-0.5655 15.78525,2.310749999 5.8695,3.510000005 9.70125,10.149750004 9.79875,16.984499994 0.2145,6.903 -3.38325,13.7475 -9.165,17.50125 -6.435,4.329 -15.33675,4.49475 -21.90825,0.38025 C 4.145113035,34.9258165 0.235363036,26.8625665 1.239613035,19.12106651 2.048863037,10.94081652 8.366863037,3.725816506 16.33261303,1.746566507 l 0,0 z" style="fill:#000;fill-opacity:1"/><path id="path13" d="M 15.37,4.67 C 25.61,0.57 38.17,8.14 39.23,19.12 40.88,29 32.68,39.04 22.67,39.33 13.15,40.28 3.95,32.21 3.68,22.65 2.97,14.91 8.07,7.23 15.37,4.67 l 0,0 z" style="fill:#fff"/><path id="path15" d="m 16.4,20.44 c 4.59,-3.75 9.08,-7.63 13.77,-11.27 -2.46,3.78 -4.99,7.51 -7.45,11.29 -2.11,0.01 -4.22,0.01 -6.32,-0.02 l 0,0 z" style="fill:#000;fill-opacity:1"/><path id="path17" d="m 20.28,22.53 c 2.12,0 4.23,0 6.34,0.03 -4.62,3.73 -9.09,7.64 -13.79,11.27 2.46,-3.78 4.99,-7.52 7.45,-11.3 l 0,0 z" style="fill:#000;fill-opacity:1"/></g></g></svg>